PathFileType	4	(X/Y/Z)	T1_P1_Vision_Movement_4_0-662.trc
DataRate	CameraRate	NumFrames	NumMarkers	Units	OrigDataRate	OrigDataStartFrame	OrigNumFrames
60	60	7	27	m	60	0	662
Frame#	Time	RHip			RKnee			RAnkle			RBigToe			RSmallToe			RHeel			LHip			LKnee			LAnkle			LBigToe			LSmallToe			LHeel			Neck			Head			Nose			RShoulder			RElbow			RWrist			RThumb			RIndex			RPinky			LShoulder			LElbow			LWrist			LThumb			LIndex			LPinky		
		X1	Y1	Z1	X2	Y2	Z2	X3	Y3	Z3	X4	Y4	Z4	X5	Y5	Z5	X6	Y6	Z6	X7	Y7	Z7	X8	Y8	Z8	X9	Y9	Z9	X10	Y10	Z10	X11	Y11	Z11	X12	Y12	Z12	X13	Y13	Z13	X14	Y14	Z14	X15	Y15	Z15	X16	Y16	Z16	X17	Y17	Z17	X18	Y18	Z18	X19	Y19	Z19	X20	Y20	Z20	X21	Y21	Z21	X22	Y22	Z22	X23	Y23	Z23	X24	Y24	Z24	X25	Y25	Z25	X26	Y26	Z26	X27	Y27	Z27
1	0.016666666666666666	-124.00751891989567	3923.8438770143575	-648.5811813629183	239.44162245940092	4086.0210825466816	-653.7413663566355	594.4090152143501	4261.9296145075095	-689.232750897385	678.0811884670052	4172.772845975998	-644.4501949563883	679.7143856139201	4161.643163376736	-700.3910016953689	639.1941686707399	4314.1493330107005	-695.6532204521097	-147.66464040012482	4068.4943619605147	-505.399647046689	209.86060876754294	4191.509178162766	-501.96717304288387	560.3626849228824	4334.653785572272	-514.3321371985533	636.977333826428	4214.1299047806315	-400.2582091974374	605.3351281502869	4245.062697515488	-372.5551732460158	625.3970297608087	4417.149865404532	-547.176518106947	-710.2359045487751	3817.5160056747677	-591.5104219271714	-954.5771980321247	3678.9755716312256	-533.2828474635323	-809.5429957817678	3661.8261345280816	-455.35945687879115	-593.9573675522694	3756.6063984167627	-712.2400915406188	-328.6156680781951	3643.6898180940066	-692.9503412726931	-484.7988678700068	3618.017189715674	-552.7831829636331	-579.9592559495925	3583.0385291633356	-457.38238503683806	-575.656650671156	3591.8349833616317	-443.5275158144558	-554.8516797814492	3592.8073443351823	-453.3803756723028	-646.5993553321541	3931.352001520001	-487.8369436904253	-423.3836270311558	4062.6652526541834	-413.2439140098718	-169.75774591392923	4086.6328386620776	-364.2416949178296	-44.81567938746725	4073.0449074226344	-365.48385993118507	-7.77417144964428	4125.979370943274	-354.783171125616	-34.625168001933446	4124.565087417822	-319.2700610248189
2	0.03333333333333333	-119.58202290955819	3957.781493571502	-658.5179972392463	237.8202429476079	4056.7091484169428	-648.4770101525988	594.5929269260969	4262.458931680441	-690.0953995004841	677.9826250099084	4172.491601521929	-644.2717316014837	674.1999732117999	4137.824603752338	-683.533362027057	632.2423297279877	4312.338119495634	-697.6611736282622	-152.76783219051973	4069.638442117094	-507.8083361704087	204.18114489146367	4163.682843494384	-505.13458949344283	549.2876499824108	4331.029152122437	-522.0313819597634	631.6835010873411	4215.450259722303	-401.2960284206489	599.2216646578851	4245.95885649641	-373.36071326535796	608.1043727876797	4375.832070057714	-544.9823028695442	-710.1614398481321	3817.548120733272	-591.4594019014945	-949.4137236267245	3679.257846936333	-526.8813204456109	-809.4077143697868	3661.518216466198	-455.15311733153885	-594.0927595102568	3756.83755791612	-712.4273286439164	-328.53683431135045	3643.153674972819	-692.8227323205659	-490.1069247634314	3614.7763724468346	-551.3229608404821	-580.4807186327362	3583.557463237055	-457.8858744932827	-581.6498292256795	3593.478258753722	-440.5510182598237	-555.4271691745748	3593.154887902455	-453.9771905401878	-651.6390342712374	3930.0027110508345	-482.42127944916183	-423.51857769304706	4062.8051518259826	-413.27639896106547	-170.0241588150504	4086.7125890593725	-364.30607898774343	-49.816429757244926	4072.1722573618276	-366.19135788334756	-7.907816384449765	4126.471679138686	-355.0198598901744	-35.08370598121593	4125.875200021961	-319.78319742376965
3	0.05	-118.83313004284886	3927.786626636923	-650.3832689984289	232.30286653303546	4056.579019511909	-649.0572008882372	594.356647332858	4262.513854596988	-689.9499248564355	677.8941545138314	4172.323566208742	-644.4101956733925	666.7232518581948	4156.871067093618	-700.9351536437946	632.0397718618115	4312.004592248779	-697.248404544926	-152.64229954124352	4069.443708027474	-507.7214542168275	204.14913345044522	4163.168607918963	-504.9883513922816	555.077080118329	4334.611708344778	-521.6586776540734	631.8322939518625	4215.314598307395	-401.34657015361216	599.1475878070194	4245.745835968367	-373.38150686786634	602.603412501232	4376.606702609865	-545.6787714676997	-710.4321481764892	3817.3571483458427	-585.4423427583491	-958.6725393389921	3676.9449670762933	-527.1502980519484	-814.4845760403698	3685.856820073232	-460.6991309330116	-594.0785654068786	3756.6197027428557	-712.4082595001812	-328.55624210609636	3643.4613658295216	-692.9703977015037	-494.9592828463935	3612.9814232457916	-551.3832685265099	-584.6558467650436	3581.0249664487947	-457.51731211986737	-584.9366777903626	3615.217948203228	-444.8459632300444	-557.6428467317651	3574.919369454866	-441.09776008549693	-651.5697087380901	3929.941797640896	-482.30382536459723	-424.6294400941251	4083.9915275529456	-427.840639132781	-170.2780783572762	4086.4322893920403	-364.2472120426568	-49.733903691032744	4071.0614441469475	-365.7707033021269	-9.036032932648103	4124.869171009614	-348.6334822325102	-34.32718190259007	4147.641714266279	-334.2185558701319
4	0.06666666666666667	-125.5947724147538	3936.6411883435003	-643.3205022998304	232.39374969248752	4056.359480987564	-648.8408895964541	594.6032376852722	4262.615747991951	-690.1427701782167	677.9953005296696	4172.476470332952	-644.3166870655527	679.3990517764265	4159.824896478722	-699.7122723718938	632.2460976405777	4311.8453050536855	-697.3497710161093	-146.93777901266785	4072.0336112769464	-507.1687067373428	204.26384562539482	4163.441070366878	-504.98181348614685	549.0505292341371	4330.749886691909	-521.9628365241723	632.0425087474403	4215.6195923904415	-401.32710866664615	603.5464741166772	4278.109275301383	-379.0870079085711	607.4270936916267	4375.30611161755	-544.7376886251662	-710.176198294592	3817.5580801301203	-591.5244214385117	-958.5997714146438	3677.1164004031775	-532.8625261672494	-809.4860458294482	3661.3019944610014	-455.06417775220314	-594.0441915866612	3756.6298494692082	-712.3486496845801	-328.43049818888977	3643.0313621914584	-692.79503139438	-494.9764088767774	3613.204850198103	-551.5479100794864	-589.1294174664007	3606.337748410382	-463.2830464043484	-590.8415367580219	3615.7311982105043	-445.8677609359295	-558.7151173513063	3576.876927853869	-441.621900630684	-651.594115669288	3929.990487900065	-482.34128826947125	-423.4288989182812	4063.2345575310096	-413.5547522259687	-170.05878711487642	4086.7043339532224	-364.1893413123448	-45.159649745034365	4073.5462413209393	-365.2639770120245	-8.88455490075635	4125.81435060701	-348.7438278753077	-33.99038683265534	4147.27141797694	-333.8724167917728
5	0.08333333333333333	-125.76801037203376	3936.3897285241846	-643.1798485321535	232.23955840091435	4056.624264691109	-649.0122786727078	594.6895016691375	4262.767382606785	-690.2237416253681	684.0339557196435	4171.6643818860375	-643.5002177384486	679.5111551915257	4160.092013297448	-699.8496901170909	632.2033379626964	4312.359400103139	-697.54779041469	-152.8483490721478	4069.533113546798	-507.64494983836227	204.1456295990629	4163.2760068102125	-504.93056981362776	548.9693449365838	4330.74777748435	-521.7954279227835	631.7708064340947	4215.613192025216	-401.13964811633826	603.3786525476233	4277.885832288693	-378.9665197851719	611.4028022983603	4408.256517409586	-551.2185237334076	-710.1712284413977	3817.521662255096	-591.5271871867122	-958.6676107864671	3677.242935377625	-532.9547145908402	-809.4980597598429	3661.4565847228237	-455.12904630765877	-594.0867287544489	3756.720220871151	-712.4399014179234	-328.4931949356722	3643.128408356927	-692.9802093818529	-495.06087472877016	3613.1613990392907	-551.5109258559042	-586.082065926546	3583.3592170152197	-458.05611794326404	-592.3530211671273	3592.5458677626884	-441.1393857361707	-559.1970350286302	3577.2830127190314	-442.01776633088014	-651.6231922478063	3930.147749965834	-482.3982028490075	-423.5642070884229	4063.077597105949	-413.523017093727	-175.4720614073286	4085.677772015222	-364.271311523004	-50.55213574282092	4070.477168577383	-364.99249688180777	-14.591343673771592	4124.006207344237	-348.27607847465896	-39.0704115972555	4146.444841494364	-334.36972058266747
6	0.1	-120.17471869797565	3936.8778387693783	-642.8721736630033	232.24020280807395	4056.5000096056624	-648.8314379284425	600.7280103988631	4266.428773604238	-692.2772667934885	689.3568203661262	4194.624351136585	-659.4730413679407	679.8824305993203	4161.0169256640775	-700.5411001164279	645.1376137649044	4319.098300255981	-698.6487423239776	-158.78939139049447	4065.245654630629	-505.85493910324374	198.0922413580907	4159.146292340341	-502.9619065540755	548.7563356072319	4330.450896498169	-521.7600446003905	631.4175104481124	4215.721452065457	-401.07180025494745	603.6156115953445	4278.716684867044	-379.4676350743289	606.9754405560369	4374.681882487801	-544.5196992398913	-710.4381865030815	3817.5355481553415	-585.501847117779	-958.6561423588258	3677.0700170347513	-532.8616665094625	-813.644314918491	3660.2834299285646	-455.3620620157096	-594.0971740684822	3756.7358082477463	-712.4390424869705	-328.52982299226596	3643.321430062282	-693.0996995285262	-500.0310855090563	3612.5893876196624	-551.7060309696885	-593.7083894265658	3606.428078331554	-463.6459243329551	-595.9259680450073	3615.791536111371	-441.111877684057	-559.1392496281325	3577.468098698872	-442.312188896759	-651.6748292170531	3930.115223105474	-482.35315509512	-423.54974384397127	4062.9525662687665	-413.3890597112842	-170.28346419376757	4086.0156766167825	-363.9340119058612	-45.45754541417818	4072.102039971495	-364.59516274509053	-9.227085781342684	4124.524817240106	-348.29116140552077	-35.22266004222923	4125.5740676687	-319.84191347688704
7	0.11666666666666667	-120.11707120253625	3936.756125692553	-642.8434235197027	237.68069245116448	4056.304929257322	-648.1194575232353	600.637132006703	4266.841149096711	-692.4885802769128	683.8825563660062	4171.6484355564235	-643.2982358100036	667.845745351423	4135.481366354155	-684.4992954114847	638.3551091554838	4315.779265046135	-699.2333172200124	-158.6806069555047	4065.4734258553817	-505.9809258466651	203.5793184995418	4162.330680395163	-498.34109531622335	554.9420473003984	4334.061015058716	-521.1188497151804	631.5282031612503	4215.96908580323	-401.2062425205539	603.8509635138103	4278.892151277233	-379.5831303552887	607.6467104288878	4375.467027306337	-544.4953580505043	-710.1987088719206	3817.6682928897835	-591.5070206407128	-958.6272033129336	3677.2609238230266	-532.949595067143	-818.7517776225085	3684.956464063491	-461.0144990505565	-594.1497710984639	3756.9970116836785	-712.5495582997537	-328.5762158091534	3643.473588957498	-693.1402411738557	-499.9810749617608	3612.4014950656974	-551.6200215838446	-585.5673474532224	3582.988823389217	-452.9042189562673	-591.788262463997	3592.5567712066345	-435.7316208595421	-558.9410747131129	3576.8670737767225	-436.40626837772265	-651.6112838808803	3930.2184206766315	-482.38681863587425	-423.4921924581417	4062.965609498832	-413.4538529428988	-170.23019417525015	4086.4178314619066	-364.0283621035632	-45.47765723490397	4073.1422243757274	-364.6965980447087	-9.099875345314825	4125.776431923139	-348.4071290200016	-28.216523241480772	4149.400061496387	-333.44181491959176
